<?xml version="1.0" encoding="utf-8"?>
<!-- Generator: Adobe Illustrator 19.2.1, SVG Export Plug-In . SVG Version: 6.00 Build 0)  -->
<svg version="1.1" xmlns="http://www.w3.org/2000/svg" xmlns:xlink="http://www.w3.org/1999/xlink" x="0px" y="0px" width="24px"
	 height="24px" viewBox="0 0 24 24" enable-background="new 0 0 24 24" xml:space="preserve">
<g id="Filled_Icons_1_" stroke="currentColor">
	<g id="Filled_Icons">
		<g>
			<path d="M8.286,14.295L2,20.591v-2.584c0-0.551-0.447-1-1-1c-0.552,0-1,0.449-1,1v5v0.002c0,0.54,0.447,0.998,1,0.991h5
				c0.553,0.007,1-0.44,1-0.993c0-0.551-0.447-1-1-1H3.412l6.289-6.299c0.391-0.392,0.39-1.024-0.001-1.414
				C9.309,13.902,8.676,13.902,8.286,14.295z"/>
			<path d="M14.295,8.286L20.591,2h-2.584c-0.551,0-1-0.447-1-1c0-0.552,0.449-1,1-1h5h0.002c0.54,0,0.998,0.447,0.991,1v5
				c0.007,0.553-0.44,1-0.993,1c-0.551,0-1-0.447-1-1V3.412l-6.299,6.289c-0.392,0.391-1.024,0.39-1.414-0.001
				C13.902,9.309,13.902,8.676,14.295,8.286z"/>
		</g>
	</g>
	<g id="New_icons">
	</g>
</g>
<g id="Invisible_Shape">
	<rect fill="none" width="24" height="24"/>
</g>
</svg>
